<svg width="430" height="932" viewBox="0 0 430 932" fill="none" xmlns="http://www.w3.org/2000/svg">
<g clip-path="url(#clip0_183_2)">
<rect width="430" height="932" fill="#FFF1E7" fill-opacity="0.960784"/>
<path fill-rule="evenodd" clip-rule="evenodd" d="M39.369 219.735C80.5428 215.166 124.587 183.755 159.23 201.26C194.07 218.864 173.948 261.901 183.907 292.768C191.569 316.516 209.626 337.202 210.972 361.631C212.529 389.869 215.451 421.394 192.215 443.472C168.843 465.68 128.144 477.525 90.7737 475.842C56.0291 474.277 35.9311 445.076 3.76216 434.984C-23.3821 426.469 -62.4415 439.38 -80.8512 422.003C-99.4084 404.486 -73.637 377.885 -79.9916 355.927C-87.1631 331.146 -123.593 312.925 -119.711 287.724C-115.705 261.715 -89.9626 238.423 -59.9115 225.579C-30.3872 212.961 5.84612 223.455 39.369 219.735Z" fill="#FFA030"/>
<path fill-rule="evenodd" clip-rule="evenodd" d="M-102.79 674.516C-75.1493 650.371 -64.2947 593.941 -25.9757 598.258C12.5611 602.599 27.8418 661.478 57.0841 692.526C79.5826 716.414 107.713 732.005 125.958 759.574C147.048 791.441 171.48 826.474 169.639 862.598C167.787 898.935 145.637 931.258 116.436 946.446C89.2871 960.567 53.6188 936.087 22.3847 939.189C-3.97065 941.807 -24.1407 974.607 -50.2011 962.996C-76.4702 951.292 -75.9201 908.787 -96.1754 886.365C-119.035 861.061 -159.199 856.736 -174.069 825.881C-189.416 794.035 -186.553 755.361 -173.088 726.767C-159.859 698.675 -125.294 694.175 -102.79 674.516Z" fill="#FDBFD5"/>
<path fill-rule="evenodd" clip-rule="evenodd" d="M174.496 428.902C205.408 402.757 219.761 344.187 260.832 346.821C302.137 349.47 315.819 409.327 345.852 439.891C368.96 463.407 398.524 478.121 416.876 505.624C438.09 537.415 462.754 572.307 459.067 609.559C455.359 647.031 429.975 681.331 397.806 698.334C367.897 714.143 330.632 690.64 296.842 695.305C268.331 699.241 245.058 733.939 217.535 723.222C189.792 712.42 192.389 668.662 171.629 646.549C148.2 621.593 105.141 619.038 90.5799 587.994C75.5511 555.954 80.459 516.029 96.3113 485.976C111.886 456.449 149.329 450.189 174.496 428.902Z" fill="#FDBFD5"/>
<path fill-rule="evenodd" clip-rule="evenodd" d="M-14.4778 2.29981C18.3686 -23.4921 38.7619 -75.1911 78.2656 -77.4858C117.994 -79.7935 124.623 -30.0978 150.338 -7.27407C170.124 10.2861 197.141 19.6011 211.877 41.0993C228.911 65.9495 248.945 93.0701 241.248 125.35C233.505 157.82 205.111 189.977 172.059 208.087C141.328 224.924 107.823 208.942 74.5669 216.675C46.505 223.2 20.1126 255.463 -5.36856 249.342C-31.0538 243.172 -23.6915 205.447 -41.358 188.827C-61.2959 170.07 -102.734 172.653 -113.405 147.705C-124.419 121.957 -115.242 87.2558 -96.5545 59.788C-78.1942 32.8016 -41.2207 23.2991 -14.4778 2.29981Z" fill="#A3CACB"/>
<path fill-rule="evenodd" clip-rule="evenodd" d="M-14.4778 2.29981C18.3686 -23.4921 38.7619 -75.1911 78.2656 -77.4858C117.994 -79.7935 124.623 -30.0978 150.338 -7.27407C170.124 10.2861 197.141 19.6011 211.877 41.0993C228.911 65.9495 248.945 93.0701 241.248 125.35C233.505 157.82 205.111 189.977 172.059 208.087C141.328 224.924 107.823 208.942 74.5669 216.675C46.505 223.2 20.1126 255.463 -5.36856 249.342C-31.0538 243.172 -23.6915 205.447 -41.358 188.827C-61.2959 170.07 -102.734 172.653 -113.405 147.705C-124.419 121.957 -115.242 87.2558 -96.5545 59.788C-78.1942 32.8016 -41.2207 23.2991 -14.4778 2.29981Z" fill="#A3CACB"/>
<path fill-rule="evenodd" clip-rule="evenodd" d="M336.159 604.488C372.808 575.062 393.892 513.951 439.315 513.047C484.996 512.137 494.964 572.109 525.673 600.714C549.299 622.722 580.875 635.171 598.867 661.67C619.663 692.301 644.024 725.799 636.665 764.191C629.262 802.81 598.042 840.085 560.794 860.278C526.164 879.052 486.799 858.296 448.83 866.022C416.792 872.541 387.884 910.038 358.229 901.496C328.336 892.886 335.054 847.941 313.914 827.161C290.055 803.709 242.416 804.868 228.948 774.418C215.048 742.99 223.999 701.76 244.252 669.66C264.149 638.122 306.319 628.446 336.159 604.488Z" fill="#A3CACB"/>
<path fill-rule="evenodd" clip-rule="evenodd" d="M336.159 604.488C372.808 575.062 393.892 513.951 439.315 513.047C484.996 512.137 494.964 572.109 525.673 600.714C549.299 622.722 580.875 635.171 598.867 661.67C619.663 692.301 644.024 725.799 636.665 764.191C629.262 802.81 598.042 840.085 560.794 860.278C526.164 879.052 486.799 858.296 448.83 866.022C416.792 872.541 387.884 910.038 358.229 901.496C328.336 892.886 335.054 847.941 313.914 827.161C290.055 803.709 242.416 804.868 228.948 774.418C215.048 742.99 223.999 701.76 244.252 669.66C264.149 638.122 306.319 628.446 336.159 604.488Z" fill="#A3CACB"/>
<path fill-rule="evenodd" clip-rule="evenodd" d="M278.938 500.478C261.34 468.134 212.651 444.405 221.883 408.442C231.167 372.275 285.712 371.36 317.454 350.435C341.876 334.336 359.708 310.853 386.807 299.723C418.131 286.857 452.743 271.51 484.63 281.772C516.704 292.093 542.352 321.061 551.759 352.806C560.506 382.321 533.705 410.99 532.072 441.858C530.694 467.905 557.045 495.074 543.046 517.494C528.936 540.094 491.189 529.578 468.387 543.857C442.654 559.972 433.155 597.714 403.606 604.815C373.108 612.144 339.096 600.297 315.546 580.587C292.408 561.223 293.266 526.812 278.938 500.478Z" fill="#FFCC00"/>
<path fill-rule="evenodd" clip-rule="evenodd" d="M227.448 666.43C265.026 661.535 305.222 627.881 336.839 646.636C368.636 665.497 350.272 711.609 359.361 744.68C366.354 770.124 382.833 792.288 384.062 818.462C385.483 848.717 388.149 882.493 366.944 906.148C345.613 929.942 308.469 942.634 274.363 940.831C242.653 939.154 224.311 907.867 194.952 897.055C170.178 887.931 134.531 901.764 117.729 883.146C100.793 864.378 124.313 835.876 118.514 812.35C111.969 785.799 78.7205 766.276 82.2635 739.276C85.9202 711.409 109.414 686.453 136.84 672.692C163.785 659.172 196.854 670.416 227.448 666.43Z" fill="#FFA030"/>
</g>
<defs>
<clipPath id="clip0_183_2">
<rect width="430" height="932" fill="white"/>
</clipPath>
</defs>
</svg>
